<svg xmlns="http://www.w3.org/2000/svg" width="89" height="73" viewBox="0 0 89 73"><path d="M41.5,19.5A3.49,3.49,0,0,0,38,23V51a3.52,3.52,0,0,0,3.5,3.5h21A3.52,3.52,0,0,0,66,51V30L55.5,19.5Zm15.75,28H41.5V44H57.25Zm5.25-7h-21V37h21Zm-8.75-8.75V22.13l9.63,9.62Z" style="fill:none"/><rect x="41.5" y="37" width="21" height="3.5" style="fill:red"/><path d="M52.5,0A36.33,36.33,0,0,0,29.8,7.93,16,16,0,0,1,16.29,32,37.27,37.27,0,0,0,16,36.5,36.5,36.5,0,1,0,52.5,0ZM66,51a3.52,3.52,0,0,1-3.5,3.5h-21A3.52,3.52,0,0,1,38,51V23a3.49,3.49,0,0,1,3.5-3.5h14L66,30Z" style="fill:red"/><rect x="41.5" y="44" width="15.75" height="3.5" style="fill:red"/><polygon points="53.75 31.75 63.38 31.75 53.75 22.13 53.75 31.75" style="fill:red"/><path d="M32,16A16,16,0,1,0,16,32h.29A16,16,0,0,0,32,16Z" style="fill:#fff"/><path d="M9,23a1,1,0,0,1,1-1H22a1,1,0,0,1,0,2H10A1,1,0,0,1,9,23Zm3.29-7.71a1,1,0,0,1,1.42,0L15,16.59V9a1,1,0,0,1,2,0v7.59l1.29-1.3a1,1,0,0,1,1.42,1.42l-3,3a1,1,0,0,1-1.42,0l-3-3A1,1,0,0,1,12.29,15.29Z"/></svg>