<svg xmlns="http://www.w3.org/2000/svg" viewBox="0 0 291 178"><path d="M185.12,161.7c-1,.09-2.08.18-3.1.23-.74,0-1.48.09-2.23.09s-1.62,0-2.41,0h-2.13c-1.67,0-3.29,0-4.87-.14-48.85-1.9-58.08-23.17-91.13-33.52C47.68,118.48,4.2,54,25.85,18.2a37.52,37.52,0,0,1,7.37-8.82c33.23-29.57,78.57,20,94.84,22.57S197.78-5.33,235.24,14.58c11.3,6,18.91,21.91,21.41,41.13C262.12,98.1,243.12,156.64,185.12,161.7Z" style="fill:red;opacity:0.15000000596046448;isolation:isolate"/><path d="M127.13,166c-9.5,9.24-17.75-5.06-14.13-9.71S131.82,161.42,127.13,166Z" style="fill:red;opacity:0.15000000596046448;isolation:isolate"/><path d="M128.43,175.76a4.68,4.68,0,0,1-.74,1.07c-2.36,2.69-5.79.19-6.4-2a1.77,1.77,0,0,1,0-1.2C122.18,171.26,129.78,173.26,128.43,175.76Z" style="fill:red;opacity:0.15000000596046448;isolation:isolate"/><path d="M126.21,4.56c11.63-1.81,17.61,15.59,6.25,15.87s-15.85-5.57-14.83-10.3S126.21,4.56,126.21,4.56Z" style="fill:red;opacity:0.15000000596046448;isolation:isolate"/><path d="M145.76,123.64c18.78,0,30.12-14.18,30.15-38.61,0-24.24-11.44-38.13-30.15-38.13S115.65,60.76,115.62,85,127,123.61,145.76,123.64Zm0-13c-8.56,0-14.1-8.54-14.07-25.62,0-16.82,5.54-25.29,14.07-25.29s14,8.47,14,25.29C159.84,102.11,154.29,110.65,145.76,110.65Z" style="fill:red"/><path d="M185.12,161.7c-1,.09-2.08.18-3.1.23-.74,0-1.48.09-2.23.09s-1.62,0-2.41,0h-2.13c-1.67,0-3.29,0-4.87-.14-48.85-1.9-58.08-23.17-91.13-33.52C47.68,118.48,4.2,54,25.85,18.2,24.09,29,21.49,60.08,43.37,86.07c26.93,32,90.72,52.51,101.42,52.79S134,122.75,181,110s24.2,11.89,30,21.26,30.45-18.52,34.58-50.69C247,68.67,251,60.26,256.65,55.71,262.12,98.1,243.12,156.64,185.12,161.7Z" style="fill:#090b12;opacity:0.550000011920929;isolation:isolate"/><path d="M25.89,67.92S49.16,50.28,13.47,29.25C6.89,43,24,56.22,25.89,67.92Z" style="fill:#b30000"/><path d="M13.47,29.25s1.58,7,8.21,14.39S32,55.85,25.89,67.92M12.73,40.86l7.28.79,2.73-6M16.85,50l9-1.35L28,40.77m-6.91,16.1L29,56.32l3.2-8.82" style="fill:none;stroke:#fff;stroke-linecap:round;stroke-linejoin:round;stroke-width:2px;opacity:0.5;isolation:isolate"/><path d="M34.38,86.07S51.11,54.79,1.05,49.73C.72,68.2,26.36,74.1,34.38,86.07Z" style="fill:red"/><path d="M1,49.73S6.28,56.6,17.36,61.42s17.57,8.27,17,24.65M6.1,62.91l8.39-2.83v-8m.79,18.8,9.13-6-1.53-9.75m.51,21.27,8.44-4.65-1-11.32" style="fill:none;stroke:#fff;stroke-linecap:round;stroke-linejoin:round;stroke-width:2px;opacity:0.5;isolation:isolate"/><path d="M191.57,142.2a48.7,48.7,0,0,1-1.86,8.59,56.81,56.81,0,0,1-2.68,7.05c-.7,1.49-1.35,2.79-1.95,3.81-1,.09-2.09.19-3.11.23-.74.05-1.48.1-2.22.1s-1.62,0-2.41,0h-2.13c-.05-.09-.05-.23-.1-.32s0-.79.24-2.14a45.48,45.48,0,0,1,1.15-5.34c.19-.65.38-1.3.61-2s.41-1.21.65-1.86c.46-1.21,1-2.51,1.57-3.85a60.77,60.77,0,0,1,4.22-7.66,57.46,57.46,0,0,1,7.93-9.52A47.86,47.86,0,0,1,191.57,142.2Z" style="fill:red"/><path d="M179.79,162c.28-1,.65-2.19,1.12-3.53m0,0c0-.1,0-.19.09-.23.65-1.91,1.39-4.09,2.23-6.41.92-2.55,1.9-5.29,2.87-7.89,2.83-7.66,5.42-14.53,5.42-14.53m-10.61,29.06-4.41-4.23m4.41,4.23,6.16-.61m-3.52-19,2.5,5.06,5.52-1.72m-12.33,4.22,3.94,5.39,6.58-1" style="fill:none;stroke:#fff;stroke-linecap:round;stroke-linejoin:round;opacity:0.5;isolation:isolate"/><path d="M182,161.88c-.74.05-1.48.1-2.23.1s-1.62,0-2.41,0h-2.13c-1.67,0-3.29,0-4.87-.14a52.53,52.53,0,0,1-2.82-6.87,54.64,54.64,0,0,1-2.09-8.49,55.92,55.92,0,0,1-.65-12.4,47.36,47.36,0,0,1,8.81,9.33,50.25,50.25,0,0,1,4.17,6.92c.09.23.23.42.33.65a49.3,49.3,0,0,1,2.82,7c0,.05.05.14.05.19a1.57,1.57,0,0,1,.09.23C181.46,159.75,181.79,160.91,182,161.88Z" style="fill:#b30000"/><path d="M176.46,162c-.37-.79-.75-1.62-1.12-2.46-.46-1.07-.92-2.18-1.43-3.29-1.07-2.51-2.18-5.16-3.29-7.76-3.16-7.56-5.89-14.39-5.89-14.39m.69,12.4,5.24,2,2.92-5.06M167.42,155l6.53,1.26,4.13-5.25m2.83,7-.23.23-3.3,3.76" style="fill:none;stroke:#fff;stroke-linecap:round;stroke-linejoin:round;opacity:0.5;isolation:isolate"/><path d="M246.22,27.63a13.22,13.22,0,0,1,12.42-8.08c9.46,0,12.06,10.77,12.06,10.77s.65-2.6,5.93-2.69,6.86,6.08,6.86,6.08,5-2.51,7.51,5.34H232.87S235.47,26.51,246.22,27.63Z" style="fill:red"/><path d="M56.3,8.08A13.22,13.22,0,0,0,43.88,0C34.42,0,31.83,10.78,31.83,10.78s-.65-2.6-5.94-2.7-6.81,6.09-6.81,6.09-5-2.51-7.51,5.33H69.65S67.06,7,56.3,8.08Z" style="fill:red"/><path d="M145.76,123.64c18.77,0,30.11-14.18,30.15-38.61,0-24.24-11.45-38.13-30.15-38.13S115.65,60.76,115.61,85,127,123.61,145.76,123.64Zm0-13c-8.57,0-14.11-8.54-14.07-25.62,0-16.82,5.54-25.29,14.07-25.29s14,8.47,14,25.29C159.83,102.11,154.29,110.65,145.76,110.65Z" style="fill:red"/><path d="M221.87,109H186V96.65L217.2,47.91H237l.21,35.5h-15V65h-.58L201.93,95.85v.58h44.29V109H237v13H221.87Z" style="fill:red"/><path d="M81.61,109H45.78V96.65L77,47.91H96.71v35.5H81.91V65h-.59L61.67,95.85v.58H106V109H96.71v13H81.61Z" style="fill:red"/></svg>