<svg xmlns="http://www.w3.org/2000/svg" viewBox="0 0 916 250"><path d="M480.27,167h25.21v28.53H533V167h25.32v81.53H533v-33H505.48v33H480.27Z" style="fill:#090b12"/><path d="M571.91,207.85q0-20,11.13-31.09t31-11.13q20.37,0,31.38,11t11,30.59q0,14.3-4.84,23.47a34.3,34.3,0,0,1-13.91,14.23Q628.61,250,615,249.94q-13.8,0-22.87-4.39a34.48,34.48,0,0,1-14.63-13.9Q571.91,222.14,571.91,207.85Zm25.21.11q0,12.35,4.56,17.74t12.52,5.39c5.41,0,9.61-1.76,12.57-5.28s4.45-9.85,4.45-19q0-11.51-4.67-16.79T614,184.71a15.34,15.34,0,0,0-12.25,5.39Q597.13,195.5,597.12,208Z" style="fill:#090b12"/><path d="M723.09,167h25.15v48.61A40.74,40.74,0,0,1,746,229.31a29.46,29.46,0,0,1-7.07,11.24,28.1,28.1,0,0,1-10.07,6.72A50.77,50.77,0,0,1,711.18,250a112.93,112.93,0,0,1-13-.83,34.33,34.33,0,0,1-11.74-3.29,30.2,30.2,0,0,1-8.68-7.06,26,26,0,0,1-5.34-9.4,48.67,48.67,0,0,1-2.34-13.79V167h25.15V216.8q0,6.67,3.68,10.45T709.18,231q6.51,0,10.18-3.67t3.73-10.51Z" style="fill:#090b12"/><path d="M760.54,221.58l24-1.5q.78,5.83,3.17,8.9,3.9,5,11.13,5c3.6,0,6.36-.84,8.29-2.5a7.65,7.65,0,0,0,2.95-5.9,7.5,7.5,0,0,0-2.78-5.67q-2.79-2.51-12.91-4.73-16.59-3.72-23.65-9.9a19.89,19.89,0,0,1-7.12-15.74,21.32,21.32,0,0,1,3.61-11.84,24.13,24.13,0,0,1,11-8.79q7.35-3.23,20.09-3.23,15.65,0,23.82,5.84t9.79,18.47l-23.76,1.39q-.95-5.51-4-8t-8.34-2.5q-4.39,0-6.62,1.89a5.6,5.6,0,0,0-2.23,4.5,4.54,4.54,0,0,0,1.84,3.51q1.77,1.6,8.46,3,16.51,3.56,23.64,7.23t10.41,9A22.73,22.73,0,0,1,834.54,222a25.9,25.9,0,0,1-4.34,14.46,27.34,27.34,0,0,1-12.13,10.06q-7.79,3.39-19.64,3.39-20.8,0-28.82-8T760.54,221.58Z" style="fill:#090b12"/><path d="M847.23,167h67.55v17.41H872.49v13h39.23V214H872.49v16.07H916v18.46H847.23Z" style="fill:#090b12"/><path d="M542.93.06,502.25.14l.27,137.56,40.68-.08Z" style="fill:red"/><path d="M443.05,36.5s.1,57.22.1,57.42a14.29,14.29,0,0,1-28.58,0l-.1-57.42-40.68.1.1,63.87a40,40,0,0,0,40,39.87,39.5,39.5,0,0,0,29.28-12.9v10.32l40.68-.1-.2-101.36Z" style="fill:red"/><path d="M635.45,36.1l-33.14.1V0L561.52.1l.3,137.46H602.5l-.09-71.21,14.88-.1Z" style="fill:red"/><path d="M357.91,36.6l-99.52.19.09,30.15,45.75-.09-48.13,49,.1,22,101.91-.1V107.61l-47.23.1L358,59.7Z" style="fill:red"/><path d="M174.44,72.89a14.64,14.64,0,0,1,29.27-.09Zm14.69,39.78c-11.51,0-16.38-7.94-16.38-17.76H205.5l38.8-.1a55.53,55.53,0,0,0,.59-8c-.1-29.85-25.1-53.95-55.86-53.85S133.26,57.22,133.26,87s25.11,54,56,53.85q34.38-.74,52.09-27.47L208.08,99.77a28.43,28.43,0,0,1-7.54,9.62C197.66,111.57,193.59,112.67,189.13,112.67Z" style="fill:red"/><path d="M40.09,67.34H.1l.1,71.11,40.78-.1-.2-69.92Z" style="fill:red"/><path d="M82.56,45.72a16.11,16.11,0,0,1-6.85,13.19L58.05,29.75h8.43A15.92,15.92,0,0,1,82.56,45.72ZM96,87.47A44.53,44.53,0,0,0,81.27.89L0,1.09l43.66,72,39.59,65.16,43.56-.1Z" style="fill:red"/><path d="M662.73,119.61a20.34,20.34,0,1,1-20.34-20.33A20.45,20.45,0,0,1,662.73,119.61Z" style="fill:red"/><path d="M654.1,10.71a4,4,0,0,0,2.18-.89,2.92,2.92,0,0,0,.9-2.38,3.1,3.1,0,0,0-1-2.58A5.53,5.53,0,0,0,653,4.07l-4.66.1V16h1.88V10.91h2L655.49,16h2Zm-1.88-1.39h-1.79V5.55h2.48c.3,0,.6.1.89.1a6.89,6.89,0,0,1,.8.3,2.62,2.62,0,0,1,.59.5,2.85,2.85,0,0,1,.2,1,1.78,1.78,0,0,1-.3,1.09,1.23,1.23,0,0,1-.69.59,3,3,0,0,1-1,.2Z" style="fill:red"/><path d="M661.64,6.05a10,10,0,0,0-2.18-3.17A9.66,9.66,0,0,0,656.28.79,10.09,10.09,0,0,0,652.41,0a11,11,0,0,0-4,.79,9.32,9.32,0,0,0-3.28,2.09A11.9,11.9,0,0,0,643,6.05a12.17,12.17,0,0,0-.89,4,9,9,0,0,0,.79,4.06,10.29,10.29,0,0,0,2.18,3.18,11.74,11.74,0,0,0,3.28,2.08,9.24,9.24,0,0,0,4,.79,10.36,10.36,0,0,0,4-.79,9.79,9.79,0,0,0,3.18-2.08,10.12,10.12,0,0,0,2.18-3.18,10.92,10.92,0,0,0,.8-4.06A8.83,8.83,0,0,0,661.64,6.05Zm-1.48,7.34a7.61,7.61,0,0,1-1.79,2.78A7.12,7.12,0,0,1,655.69,18a8.69,8.69,0,0,1-3.28.7,7.12,7.12,0,0,1-3.27-.7,8.1,8.1,0,0,1-2.68-1.78,9,9,0,0,1-1.78-2.78,9.73,9.73,0,0,1-.6-3.47,9.18,9.18,0,0,1,.6-3.37,6.93,6.93,0,0,1,1.78-2.68,7.11,7.11,0,0,1,2.68-1.79,8.88,8.88,0,0,1,3.27-.69,7.26,7.26,0,0,1,3.28.69,9.67,9.67,0,0,1,2.68,1.79,7.93,7.93,0,0,1,1.79,2.68,9.79,9.79,0,0,1,.59,3.37A10,10,0,0,1,660.16,13.39Z" style="fill:red"/><path d="M542.93.06,502.25.14l.27,137.56,40.68-.08Z" style="fill:red"/></svg>