<svg xmlns="http://www.w3.org/2000/svg" viewBox="0 0 63.75 24"><path d="M36,10.33v3.58a2.12,2.12,0,0,1-.9,2,6.74,6.74,0,0,1-3.15.52H28.28V7.66h3.65a6.54,6.54,0,0,1,3.13.55A2.28,2.28,0,0,1,36,10.33Zm-2.07,3.58V10.29a.91.91,0,0,0-.5-.89,3.7,3.7,0,0,0-1.52-.24H30.33V15h1.51a5.22,5.22,0,0,0,1.63-.18C33.78,14.65,33.92,14.36,33.92,13.91Z"/><path d="M43.9,12.27V14.2a2.69,2.69,0,0,1-.2,1.09,1.93,1.93,0,0,1-.49.7,2,2,0,0,1-.76.39,4.43,4.43,0,0,1-.87.17c-.26,0-.57,0-.94,0s-.68,0-.94,0a7,7,0,0,1-.87-.17,2,2,0,0,1-.76-.39,1.79,1.79,0,0,1-.49-.7,2.72,2.72,0,0,1-.2-1.09V12.27a3.08,3.08,0,0,1,.21-1.16,2,2,0,0,1,.51-.74,1.93,1.93,0,0,1,.77-.4,4.4,4.4,0,0,1,.85-.17,8.19,8.19,0,0,1,.92,0,8.08,8.08,0,0,1,.92,0,4.4,4.4,0,0,1,.85.17,2.2,2.2,0,0,1,.78.4,2.13,2.13,0,0,1,.5.74A2.9,2.9,0,0,1,43.9,12.27ZM42,14.43V12a1,1,0,0,0-.26-.76,2.66,2.66,0,0,0-2.12,0,.94.94,0,0,0-.27.76v2.47a.86.86,0,0,0,.26.72,2.78,2.78,0,0,0,2.12,0A.81.81,0,0,0,42,14.43Z"/><path d="M51.73,12.27V14.2a2.53,2.53,0,0,1-.2,1.09,1.8,1.8,0,0,1-.48.7,2,2,0,0,1-.76.39,4.34,4.34,0,0,1-.86.17c-.26,0-.58,0-1,0s-.68,0-.94,0a6.5,6.5,0,0,1-.86-.17,1.88,1.88,0,0,1-.76-.39,1.79,1.79,0,0,1-.49-.7,2.56,2.56,0,0,1-.2-1.09V12.27a2.9,2.9,0,0,1,.21-1.16,1.89,1.89,0,0,1,.5-.74,2.08,2.08,0,0,1,.77-.4,4.64,4.64,0,0,1,.86-.17,7.89,7.89,0,0,1,.91,0,8.08,8.08,0,0,1,.92,0,4.64,4.64,0,0,1,.86.17,2.24,2.24,0,0,1,.77.4,1.89,1.89,0,0,1,.5.74A3.09,3.09,0,0,1,51.73,12.27ZM49.8,14.43V12a1,1,0,0,0-.27-.76A1.75,1.75,0,0,0,48.47,11a1.73,1.73,0,0,0-1.06.22.94.94,0,0,0-.27.76v2.47a.83.83,0,0,0,.27.72,1.82,1.82,0,0,0,1.06.21,1.8,1.8,0,0,0,1.06-.21A.83.83,0,0,0,49.8,14.43Z" /><path d="M57.42,11.4h-.65a2.39,2.39,0,0,0-1.2.25.93.93,0,0,0-.4.86v3.94H53.23V9.89h1.84V11a1.16,1.16,0,0,1,.55-.88,1.8,1.8,0,0,1,1.11-.4h.69Z"/><path d="M64,13.9v.83a1.83,1.83,0,0,1-.18.84,1.55,1.55,0,0,1-.45.55,2.13,2.13,0,0,1-.71.31,4.29,4.29,0,0,1-.84.13c-.27,0-.58,0-.94,0a18.39,18.39,0,0,1-2.53-.2V15.08a20.07,20.07,0,0,0,2.55.29,2.61,2.61,0,0,0,.89-.12.45.45,0,0,0,.31-.45v-.4a.59.59,0,0,0-.17-.47,1.22,1.22,0,0,0-.74-.16h-.83a2.66,2.66,0,0,1-1.57-.41,1.43,1.43,0,0,1-.57-1.22v-.8a1.24,1.24,0,0,1,.84-1.24,6.6,6.6,0,0,1,2.35-.34c.42,0,1.18,0,2.27.12v1.26C62.31,11,61.53,11,61.35,11a2.78,2.78,0,0,0-1,.11c-.15.07-.21.22-.21.44v.35a.41.41,0,0,0,.16.3.81.81,0,0,0,.52.13h.84C63.22,12.32,64,12.85,64,13.9Z"/><path d="M31.45,20.12v1.71a.9.9,0,0,1-.14.51.73.73,0,0,1-.37.3,1.74,1.74,0,0,1-.48.14,2.6,2.6,0,0,1-.5,0c-1,0-1.49-.32-1.49-1V20.12c0-.69.5-1,1.49-1S31.45,19.44,31.45,20.12Zm-.51,1.71V20.11c0-.45-.33-.67-1-.67a2.05,2.05,0,0,0-.37,0,.85.85,0,0,0-.31.09.5.5,0,0,0-.23.2.59.59,0,0,0-.08.34v1.72c0,.42.32.63,1,.63S30.94,22.26,30.94,21.83Z"/><path d="M35.15,22.76h-.5v-.33c0,.26-.34.39-.86.39a1.07,1.07,0,0,1-.72-.19.8.8,0,0,1-.2-.58v-2h.5v2a.76.76,0,0,0,0,.16.37.37,0,0,0,.07.14.26.26,0,0,0,.17.1.87.87,0,0,0,.3,0,1.79,1.79,0,0,0,.57-.07.3.3,0,0,0,.16-.29v-2h.5Z"/><path d="M38.28,22.78a3.31,3.31,0,0,1-.55,0,1.05,1.05,0,0,1-.7-.18.93.93,0,0,1-.19-.66V20.4h-.59v-.33h.59v-.84h.49v.84h1v.33h-.94V22a.51.51,0,0,0,.11.38.63.63,0,0,0,.44.11l.39-.05v.32Z"/><path d="M41.41,21.82v.24a.61.61,0,0,1-.3.59,1.82,1.82,0,0,1-.86.17,7.41,7.41,0,0,1-.9-.06v-.39a6.62,6.62,0,0,0,.91.1,1.57,1.57,0,0,0,.5-.06.26.26,0,0,0,.16-.27v-.28a.28.28,0,0,0-.12-.25.77.77,0,0,0-.37-.07h-.3a1,1,0,0,1-.63-.18.59.59,0,0,1-.22-.48v-.24c0-.43.4-.64,1.18-.64l.8.05v.36a4.35,4.35,0,0,0-.82-.09,1.06,1.06,0,0,0-.53.09.26.26,0,0,0-.14.25v.23c0,.19.16.28.48.28h.31C41.13,21.18,41.41,21.39,41.41,21.82Z"/><path d="M45,21v.94a1.29,1.29,0,0,1-.06.42.65.65,0,0,1-.16.27.71.71,0,0,1-.26.15l-.32.06h-.42l-.51,0a1.4,1.4,0,0,1-.37-.11.55.55,0,0,1-.26-.28,1.34,1.34,0,0,1-.08-.5V21a1.44,1.44,0,0,1,.06-.45.79.79,0,0,1,.16-.29.69.69,0,0,1,.27-.16l.32-.06h.83l.32.06a.51.51,0,0,1,.26.16.79.79,0,0,1,.16.29A1.44,1.44,0,0,1,45,21Zm-.5,1v-1.1a.55.55,0,0,0-.15-.46,1.38,1.38,0,0,0-.57-.09,1.21,1.21,0,0,0-.56.09c-.1.07-.15.22-.15.46V22a1.12,1.12,0,0,0,0,.29.26.26,0,0,0,.14.15.66.66,0,0,0,.22.06h.65a.83.83,0,0,0,.21-.06.25.25,0,0,0,.15-.15A2.19,2.19,0,0,0,44.54,22Z"/><path d="M48.71,22.76h-.49v-.33c0,.26-.34.39-.86.39a1.07,1.07,0,0,1-.72-.19.76.76,0,0,1-.2-.58v-2h.5v2a.76.76,0,0,0,0,.16.29.29,0,0,0,.08.14.26.26,0,0,0,.17.1.87.87,0,0,0,.3,0,1.79,1.79,0,0,0,.57-.07.3.3,0,0,0,.16-.29v-2h.49v2.7Z"/><path d="M51.61,20.44h-.27a1,1,0,0,0-.49.09.36.36,0,0,0-.16.34v1.9h-.5v-2.7h.47v.45a.44.44,0,0,1,.23-.35.83.83,0,0,1,.49-.15h.24v.42Z"/><path d="M54.59,22.75a4.13,4.13,0,0,1-.84.08h-.38l-.31-.05a.59.59,0,0,1-.26-.14.71.71,0,0,1-.15-.26,1.07,1.07,0,0,1-.06-.42V21a1.51,1.51,0,0,1,0-.39.64.64,0,0,1,.13-.26.69.69,0,0,1,.18-.16.53.53,0,0,1,.25-.08l.28,0h.33a4,4,0,0,1,.76.08v.37a3.42,3.42,0,0,0-.81-.11,1,1,0,0,0-.53.1c-.09.07-.13.21-.13.43V22a.45.45,0,0,0,.14.4,1.14,1.14,0,0,0,.57.1,3.81,3.81,0,0,0,.8-.1v.37Z"/><path d="M56.33,19.61h-.49v-.52h.49Zm0,3.15h-.49v-2.7h.49Z"/><path d="M60.09,22.76H59.6v-2a.7.7,0,0,0,0-.16.27.27,0,0,0-.07-.14.3.3,0,0,0-.17-.11.9.9,0,0,0-.31,0,1.23,1.23,0,0,0-.57.09.4.4,0,0,0-.15.35v2h-.48v-2.7h.48v.33q.09-.39.87-.39a1,1,0,0,1,.72.19.8.8,0,0,1,.19.58v2Z"/><path d="M63.82,20.07V23a.85.85,0,0,1-.32.78,1.78,1.78,0,0,1-.94.2,5.58,5.58,0,0,1-.91-.06v-.36a9.09,9.09,0,0,0,1,.08,1,1,0,0,0,.54-.12.45.45,0,0,0,.17-.41v-.64c0,.13-.09.21-.25.27a1.87,1.87,0,0,1-.55.08,1.43,1.43,0,0,1-.83-.18.79.79,0,0,1-.23-.64v-1.1a.86.86,0,0,1,.25-.69,1.34,1.34,0,0,1,.83-.2c.46,0,.73.1.81.32v-.26h.47Zm-.5,2V20.81a.43.43,0,0,0-.13-.36,1.19,1.19,0,0,0-.58-.1,1,1,0,0,0-.53.09.46.46,0,0,0-.12.36V22a.44.44,0,0,0,.13.37,1.25,1.25,0,0,0,.54.08,1.22,1.22,0,0,0,.54-.09C63.27,22.34,63.32,22.22,63.32,22Z"/><path d="M13.13,2.09V21.82l10.55,2.1V0Zm8.23,6.79h-2.5V16.4H17.29V8.88H14.81V7.52h6.55Z"/><path d="M.25,0V23.92l10.55-2.1V2.09ZM6.64,16.41H5.05V7.52H6.64Z"/></svg>