<svg xmlns="http://www.w3.org/2000/svg" viewBox="0 0 1320 360.36"><path d="M692.09,240.76h36.32v41.12H768.1V240.76h36.49V358.27H768.1V310.74H728.41v47.53H692.09Z" style="fill:#fff"/><path d="M824.15,299.6q0-28.78,16-44.82t44.66-16q29.34,0,45.22,15.79T946,298.63q0,20.61-7,33.83a49.34,49.34,0,0,1-20,20.52q-13.08,7.31-32.64,7.3-19.87,0-32.95-6.33T832.25,333.9Q824.15,320.21,824.15,299.6Zm36.32.16q0,17.79,6.58,25.57t18,7.77q11.71,0,18.12-7.61t6.42-27.34q0-16.59-6.74-24.21t-18.12-7.69q-11,0-17.64,7.77T860.47,299.76Z" style="fill:#fff"/><path d="M1042,240.76h36.24v70.06a58.76,58.76,0,0,1-3.29,19.72,42.33,42.33,0,0,1-10.18,16.19,40.51,40.51,0,0,1-14.51,9.7q-10.59,3.93-25.42,3.93a161,161,0,0,1-18.76-1.2,49.48,49.48,0,0,1-16.92-4.73,43.53,43.53,0,0,1-12.51-10.18A37.62,37.62,0,0,1,969,330.7a70.44,70.44,0,0,1-3.37-19.88V240.76h36.25V312.5q0,9.62,5.29,15.07t14.83,5.37q9.39,0,14.68-5.29T1042,312.5Z" style="fill:#fff"/><path d="M1096,319.39l34.56-2.16q1.13,8.41,4.57,12.83,5.61,7.13,16,7.13,7.77,0,11.94-3.61a11,11,0,0,0,4.25-8.49,10.77,10.77,0,0,0-4-8.18q-4-3.6-18.6-6.81-23.9-5.37-34.08-14.27a28.72,28.72,0,0,1-10.26-22.69,30.79,30.79,0,0,1,5.21-17.07q5.29-8.1,15.8-12.67t28.94-4.65q22.53,0,34.32,8.42t14.11,26.61l-34.23,2q-1.37-7.94-5.78-11.55t-12-3.6q-6.35,0-9.55,2.72a8.14,8.14,0,0,0-3.2,6.49,6.52,6.52,0,0,0,2.64,5q2.57,2.33,12.19,4.33,23.82,5.13,34.08,10.42t15,13a32.77,32.77,0,0,1,4.73,17.4,37.25,37.25,0,0,1-6.25,20.84,39.39,39.39,0,0,1-17.48,14.51q-11.22,4.89-28.31,4.89-30,0-41.53-11.55T1096,319.39Z" style="fill:#fff"/><path d="M1220.89,240.76h97.35v25.09H1257.3v18.67h56.53v24H1257.3v23.17H1320v26.61h-99.11Z" style="fill:#fff"/><path d="M782.4.09,723.77.2l.38,198.28,58.63-.11Z" style="fill:red"/><path d="M638.45,52.61s.14,82.49.14,82.77a20.59,20.59,0,0,1-41.18,0l-.14-82.77-58.63.14.15,92.07a57.6,57.6,0,0,0,57.62,57.46,56.86,56.86,0,0,0,42.18-18.58v14.87l58.63-.15-.29-146.1Z" style="fill:red"/><path d="M915.71,52,868,52.18V0L809.18.14l.43,198.14h58.63l-.15-102.64,21.45-.14Z" style="fill:red"/><path d="M515.77,52.75,372.35,53l.14,43.46,65.92-.15L369.06,167l.14,31.74,146.85-.14V155.11l-68.06.14,67.92-69.19Z" style="fill:red"/><path d="M251.38,105.07a21.09,21.09,0,0,1,42.18-.14Zm21.16,57.33C256,162.4,249,151,249,136.81h47.18l55.91-.14a79.17,79.17,0,0,0,.86-11.58c-.14-43-36.18-77.77-80.5-77.63S192,82.49,192,125.37c.14,43,36.17,77.77,80.64,77.63q49.54-1.08,75.07-39.6l-47.9-19.58A41.14,41.14,0,0,1,289,157.68C284.84,160.83,279,162.4,272.54,162.4Z" style="fill:red"/><path d="M57.77,97.07H.14l.15,102.5,58.77-.14L58.77,98.64Z" style="fill:red"/><path d="M119,65.9a23.22,23.22,0,0,1-9.87,19l-25.45-42H95.8A22.94,22.94,0,0,1,119,65.9Zm19.3,60.19A64.19,64.19,0,0,0,117.11,1.29L0,1.57,62.92,105.36,120,199.28l62.77-.14Z" style="fill:red"/><path d="M955,172.41a29.31,29.31,0,1,1-29.31-29.31A29.46,29.46,0,0,1,955,172.41Z" style="fill:red"/><path d="M945.74,14.15A4.21,4.21,0,0,0,947,10.72,4.46,4.46,0,0,0,945.59,7,8,8,0,0,0,941,5.86L934.3,6V23H937V15.73h2.86L944.59,23h2.86l-4.86-7.58A5.64,5.64,0,0,0,945.74,14.15Zm-5.86-.71H937.3V8h3.58c.42,0,.85.14,1.28.14a8.56,8.56,0,0,1,1.15.43,3.81,3.81,0,0,1,.85.71,4.08,4.08,0,0,1,.29,1.43,2.51,2.51,0,0,1-.43,1.57,1.88,1.88,0,0,1-1,.86,4.32,4.32,0,0,1-1.43.29Z" style="fill:red"/><path d="M953.46,8.72a14.42,14.42,0,0,0-3.15-4.57,14.14,14.14,0,0,0-4.57-3A14.52,14.52,0,0,0,940.16,0a15.8,15.8,0,0,0-5.72,1.14,13.41,13.41,0,0,0-4.72,3,17.09,17.09,0,0,0-3.14,4.57,17.45,17.45,0,0,0-1.29,5.72,13.15,13.15,0,0,0,1.14,5.86,14.42,14.42,0,0,0,3.15,4.57,16.53,16.53,0,0,0,4.72,3A13.33,13.33,0,0,0,940,29a15.23,15.23,0,0,0,5.72-1.14,14.14,14.14,0,0,0,4.57-3,14.42,14.42,0,0,0,3.15-4.57,16,16,0,0,0,1.14-5.86A12.79,12.79,0,0,0,953.46,8.72ZM951.32,19.3a10.74,10.74,0,0,1-2.58,4,10.21,10.21,0,0,1-3.86,2.58,12.67,12.67,0,0,1-4.72,1,10.45,10.45,0,0,1-4.72-1,11.53,11.53,0,0,1-3.86-2.58,12.79,12.79,0,0,1-2.57-4,14.19,14.19,0,0,1-.86-5A13.34,13.34,0,0,1,929,9.44a10.19,10.19,0,0,1,2.57-3.86A10.18,10.18,0,0,1,935.44,3a12.71,12.71,0,0,1,4.72-1,10.42,10.42,0,0,1,4.72,1,13.73,13.73,0,0,1,3.86,2.58,11.43,11.43,0,0,1,2.58,3.86,13.92,13.92,0,0,1,.85,4.86A14.19,14.19,0,0,1,951.32,19.3Z" style="fill:red"/><path d="M782.4.09,723.77.2l.38,198.28,58.63-.11Z" style="fill:red"/></svg>