<svg xmlns="http://www.w3.org/2000/svg" width="20" height="20" viewBox="0 0 20 20"><path d="M16,0H4A4,4,0,0,0,0,4V16a4,4,0,0,0,4,4H16a4,4,0,0,0,4-4V4A4,4,0,0,0,16,0Zm-.29,7.15L9.85,14.54a1.36,1.36,0,0,1-.37.31A1.12,1.12,0,0,1,9,15a1,1,0,0,1-.45,0,1,1,0,0,1-.39-.22L4.41,11.34A1.25,1.25,0,0,1,4.13,11,1.16,1.16,0,0,1,4,10.53a1.23,1.23,0,0,1,0-.47,1.07,1.07,0,0,1,.21-.41,1.05,1.05,0,0,1,.34-.29A.9.9,0,0,1,5,9.23a.91.91,0,0,1,.43,0,1.14,1.14,0,0,1,.38.23L8.64,12l5.23-6.58A1.15,1.15,0,0,1,14.69,5a1.23,1.23,0,0,1,.89.31h0A1.41,1.41,0,0,1,16,6.2,1.38,1.38,0,0,1,15.71,7.15Z"/></svg>