<svg xmlns="http://www.w3.org/2000/svg" xmlns:xlink="http://www.w3.org/1999/xlink" style="display:none"><symbol id="behance-icon"><path d="M13.5 8.58a2 2 0 01.35.77h-2.22A.76.76 0 0111.7 9a.93.93 0 01.21-.35.76.76 0 01.34-.27 1.32 1.32 0 01.56-.14 1.16 1.16 0 01.69.34zM7.13 8.1a1 1 0 00.21-1c-.07-.07-.14-.21-.21-.21s-.21-.07-.35-.13H5v1.55h1.51a1.1 1.1 0 00.62-.21zm-.55 1.18H5v1.87h1.6a.85.85 0 00.4-.07.53.53 0 00.35-.14c.07-.07.21-.14.28-.28a1 1 0 00.06-.41.87.87 0 00-.27-.77 1.57 1.57 0 00-.84-.2zM18 3.39v11.22A3.39 3.39 0 0114.61 18H3.39A3.39 3.39 0 010 14.61V3.39A3.39 3.39 0 013.39 0h11.22A3.39 3.39 0 0118 3.39zm-6.65 3.26h2.77V6h-2.77zm-2.21 3.73a2 2 0 00-.28-1.1A1.75 1.75 0 008 8.65a1.69 1.69 0 00.69-.55 1.46 1.46 0 00.21-.83 2.94 2.94 0 00-.14-.83A1.51 1.51 0 008.31 6a2.37 2.37 0 00-.69-.27 2.36 2.36 0 00-1-.14H3.46v6.78h3.32a3.92 3.92 0 00.9-.14 2.34 2.34 0 00.77-.34 1.77 1.77 0 00.55-.67 2.61 2.61 0 00.14-.84zm2.49-.2h3.53a5.56 5.56 0 00-.07-1.11 1.88 1.88 0 00-.41-.9 2.11 2.11 0 00-.76-.62 2.93 2.93 0 00-1.11-.28 2.76 2.76 0 00-1 .21 5.67 5.67 0 00-.83.55 1.69 1.69 0 00-.49.83 3 3 0 00-.2 1 2.68 2.68 0 00.2 1 2.47 2.47 0 00.49.83 3 3 0 00.76.55 2.76 2.76 0 001 .21 2.59 2.59 0 001.45-.41 2.47 2.47 0 00.9-1.25h-1.17a.87.87 0 01-.35.41 1.17 1.17 0 01-.69.21 1.29 1.29 0 01-.9-.27 1.71 1.71 0 01-.35-.96z"/></symbol><symbol id="burger-icon"><path d="M0 0h20v2H0zM6 7h14v2H6zM12 14h8v2h-8z"/></symbol><symbol id="close-icon"><path d="M18 1.46L16.54 0 9 7.54 1.46 0 0 1.46 7.54 9 0 16.54 1.46 18 9 10.46 16.54 18 18 16.54 10.46 9 18 1.46z"/></symbol><symbol id="download-icon"><path d="M0 15a1 1 0 011-1h12a1 1 0 010 2H1a1 1 0 01-1-1zm3.29-7.71a1 1 0 011.41 0L6 8.59V1a1 1 0 012 0v7.59l1.29-1.3a1 1 0 111.42 1.42l-3 3a1 1 0 01-1.41 0l-3-3a1 1 0 010-1.41z"/></symbol><symbol id="dribbble-icon"><path d="M14.61 0H3.39A3.39 3.39 0 000 3.39v11.22A3.39 3.39 0 003.39 18h11.22A3.39 3.39 0 0018 14.61V3.39A3.39 3.39 0 0014.61 0zM9 15.48A6.48 6.48 0 1115.48 9 6.49 6.49 0 019 15.48z"/><path d="M9.39 9.06L9.61 9c-.14-.31-.29-.63-.45-.94a20.6 20.6 0 01-5.69.79V9a5.53 5.53 0 001.42 3.7 8.69 8.69 0 014.5-3.64zM8.7 7.2a37.72 37.72 0 00-2-3.2 5.57 5.57 0 00-3.12 3.87A20.06 20.06 0 008.7 7.2zM12.67 4.87a5.42 5.42 0 00-2.33-1.23 5.48 5.48 0 00-2.64 0 29.3 29.3 0 012.07 3.23 6.27 6.27 0 002.9-2zM10.19 7.69c.13.26.26.53.37.8l.12.29a12.88 12.88 0 013.85.22 5.49 5.49 0 00-1.24-3.45 7.37 7.37 0 01-3.1 2.14zM11 9.65a23.26 23.26 0 011.07 3.95 5.54 5.54 0 002.38-3.71A8.08 8.08 0 0011 9.65zM10 9.92a7.57 7.57 0 00-4.4 3.45A5.47 5.47 0 009 14.54a5.35 5.35 0 002.16-.44A22.67 22.67 0 0010 9.9z"/></symbol><symbol id="facebook-icon"><path d="M8.61 18v-7H6.28V8.31h2.33v-2a3.28 3.28 0 013.5-3.6c.7 0 1.4 0 2.1.11v2.43h-1.44c-1.12 0-1.34.54-1.34 1.32v1.74h2.69L13.77 11h-2.34v7h3.18A3.39 3.39 0 0018 14.61V3.39A3.39 3.39 0 0014.61 0H3.39A3.39 3.39 0 000 3.39v11.22A3.39 3.39 0 003.39 18z"/></symbol><symbol id="filter-icon"><path d="M0 1a1 1 0 011-1h12a1 1 0 011 1v3a1 1 0 01-.29.71L9 9.41V13a1 1 0 01-.29.71l-2 2a1 1 0 01-1.09.21A1 1 0 015 15V9.41L.29 4.71A1 1 0 010 4z"/></symbol><symbol id="globe-icon"><path d="M10 0a10 10 0 1010 10A10 10 0 0010 0zm6.93 6H14a15.73 15.73 0 00-1.38-3.56A8 8 0 0116.92 6zM10 2a14.09 14.09 0 011.91 4H8.09A14.09 14.09 0 0110 2zM2.26 12A8.24 8.24 0 012 10a8.24 8.24 0 01.26-2h3.38a16.52 16.52 0 00-.14 2 16.52 16.52 0 00.14 2zm.82 2H6a15.65 15.65 0 001.38 3.56A8 8 0 013.08 14zM6 6H3.08a8 8 0 014.33-3.56A15.73 15.73 0 006 6zm4 12a14.09 14.09 0 01-1.91-4h3.82A14.09 14.09 0 0110 18zm2.34-6H7.66a14.71 14.71 0 01-.16-2 14.58 14.58 0 01.16-2h4.68a14.58 14.58 0 01.16 2 14.71 14.71 0 01-.16 2zm.25 5.56A15.65 15.65 0 0014 14h3a8 8 0 01-4.33 3.56zM14.36 12a16.52 16.52 0 00.14-2 16.52 16.52 0 00-.14-2h3.38a8.24 8.24 0 01.26 2 8.24 8.24 0 01-.26 2z"/></symbol><symbol id="imo-icon"><path d="M13 8.68c-.26.17-.35.39-.35.89a1 1 0 00.25.82.5.5 0 00.67.06 1.08 1.08 0 00.27-.41 1.94 1.94 0 00-.12-1.17.59.59 0 00-.72-.19z"/><path d="M9 0a9 9 0 00-7.64 13.75.53.53 0 01-.08.45l-.08.11a6.92 6.92 0 01-.6.61 4.14 4.14 0 00-.38.34A.71.71 0 000 16a1.21 1.21 0 00.26.38l.12.09a2.5 2.5 0 00.49.26 6.39 6.39 0 002.71-.05l.48-.11A9 9 0 109 0zM4.85 11.08c0 .11-.13.13-.49.13H4c-.07 0-.14-.38-.14-1.32v-.32C3.86 8.2 3.87 8.1 4 8a1.12 1.12 0 01.79 0 .22.22 0 01.1.09s0 2.91-.04 2.99zm-.18-3.87a.66.66 0 01-.58 0 .57.57 0 010-.88.67.67 0 01.63 0 .51.51 0 01-.05.88zm6 3.83c-.07.16-.12.17-.48.17s-.31 0-.37-.06l-.06-.06v-.87A5.26 5.26 0 009.71 9a.49.49 0 00-.12-.17l-.1-.1h-.36L9 8.85 8.91 9c-.08.13-.08.31-.08 1.08 0 .73 0 1-.13 1.08a.6.6 0 01-.34.05H8.3a.69.69 0 01-.32 0c-.11-.09-.11-.31-.12-.92v-.09C7.84 9 7.83 9 7.63 8.8a.43.43 0 00-.56 0c-.17.18-.17.23-.17 1.26v.18c0 .59 0 .8-.11.88s-.15 0-.29 0h-.07c-.31 0-.37 0-.46-.2A27 27 0 016 8c.19-.2.79-.1.8.12 0 .07 0 .18.07.18L7 8.22a1.13 1.13 0 011.13-.3.86.86 0 01.49.38s0 .07.06.08.08 0 .18-.14a1.12 1.12 0 011.3-.24 1.2 1.2 0 01.51.69 2.09 2.09 0 00.05.21V10.97zm3.89-.39l-.08.12a.32.32 0 01-.1.1l-.08.13a2.19 2.19 0 01-.46.23l-.18.05a3.83 3.83 0 01-.83 0 .19.19 0 00-.1 0 2.48 2.48 0 01-.53-.28 1.75 1.75 0 01-.57-1.65 1.42 1.42 0 01.24-.7l.13-.16a1.58 1.58 0 01.68-.49l.25-.06a3.43 3.43 0 01.78 0 1.6 1.6 0 01.57.25l.11.09a.52.52 0 01.18.18.74.74 0 00.09.12 1.42 1.42 0 01.19.41 2.09 2.09 0 00.05.21 2 2 0 01-.31 1.45z"/></symbol><symbol id="instagram-icon"><path d="M9 6a3 3 0 103 3 3 3 0 00-3-3zm9 3c0-1.24 0-2.47-.06-3.72a5.37 5.37 0 00-1.45-3.77A5.38 5.38 0 0012.71.06C11.47 0 10.24 0 9 0S6.53 0 5.28.06a5.37 5.37 0 00-3.77 1.45A5.37 5.37 0 00.06 5.28C0 6.53 0 7.76 0 9s0 2.47.06 3.72a5.37 5.37 0 001.45 3.77 5.37 5.37 0 003.77 1.45C6.53 18 7.76 18 9 18s2.47 0 3.71-.06a5.38 5.38 0 003.78-1.45 5.37 5.37 0 001.45-3.77C18 11.47 18 10.24 18 9zm-9 4.62A4.62 4.62 0 1113.62 9 4.61 4.61 0 019 13.62zm4.8-8.35a1.08 1.08 0 111.08-1.08 1 1 0 01-.08.42 1 1 0 01-.58.58 1.16 1.16 0 01-.42.08z"/></symbol><symbol id="lens-icon"><path d="M15.48 14.11a8.73 8.73 0 10-1.37 1.37L18.63 20 20 18.63zm-6.79 1.34a6.76 6.76 0 116.76-6.76 6.76 6.76 0 01-6.76 6.76z"/><path d="M9.66 4.83H7.73v2.9h-2.9v1.93h2.9v2.9h1.93v-2.9h2.9V7.73h-2.9v-2.9z"/></symbol><symbol id="line-icon"><path d="M14.52 7.32a.58.58 0 01.19 0 .42.42 0 01.16.11.55.55 0 01.14.35A.45.45 0 0115 8a.44.44 0 01-.1.16.42.42 0 01-.16.11.58.58 0 01-.19 0h-1.34v.93h1.31a.31.31 0 01.19 0 .54.54 0 01.16.1.62.62 0 01.13.2.5.5 0 010 .39.46.46 0 01-.11.16.57.57 0 01-.16.11.58.58 0 01-.19 0h-1.81a.44.44 0 01-.33-.16.5.5 0 01-.14-.35V5.94a.49.49 0 01.47-.5h1.8a.46.46 0 01.31.15.47.47 0 01.13.35.48.48 0 01-.13.34.44.44 0 01-.32.15h-1.31v.89zm-2.89 2.37a.5.5 0 01-.14.35.44.44 0 01-.33.15.46.46 0 01-.38-.2L8.94 7.38v2.31a.54.54 0 01-.13.35.45.45 0 01-.34.15.44.44 0 01-.33-.19.5.5 0 01-.14-.31V5.94a.48.48 0 01.32-.47h.15a.46.46 0 01.37.2l1.85 2.62V5.94a.47.47 0 11.94 0zm-4.3 0a.5.5 0 01-.14.35.45.45 0 01-.34.15.48.48 0 01-.33-.19.5.5 0 01-.14-.35V5.94a.49.49 0 01.48-.5.48.48 0 01.47.5zm-1.85.5H3.69a.45.45 0 01-.34-.19.55.55 0 01-.14-.35V5.94a.49.49 0 01.48-.5.48.48 0 01.47.5V9.2h1.32a.47.47 0 01.33.14.52.52 0 01.19.35.5.5 0 01-.14.35.44.44 0 01-.38.15zM18 7.67C18 3.44 14 0 9 0S0 3.44 0 7.67c0 3.79 3.2 7 7.53 7.57.29.06.69.2.79.46a2.07 2.07 0 010 .86l-.12.8c0 .23-.19.93.78.51a29.33 29.33 0 007.08-5.5A7 7 0 0018 7.67z"/></symbol><symbol id="linkedin-icon"><path d="M18 14.61A3.39 3.39 0 0114.61 18H3.39A3.39 3.39 0 010 14.61V3.39A3.39 3.39 0 013.39 0h11.22A3.39 3.39 0 0118 3.39zM3.2 15h2.49V7H3.2zm.22-9.53a1.45 1.45 0 002 0 1.47 1.47 0 00.42-1A1.44 1.44 0 103 4.44a1.47 1.47 0 00.42 1.03zM12.51 15H15v-4.4c0-2.16-.47-3.81-3-3.81a2.63 2.63 0 00-2.34 1.29V7H7.25v8h2.48v-4c0-1 .2-2.06 1.49-2.06s1.29 1.19 1.29 2.12z"/></symbol><symbol id="map-marker-icon"><path d="M10 4a3 3 0 00-3 3 3 3 0 003 3 3 3 0 003-3 3 3 0 00-3-3zm0 4a.94.94 0 01-1-1 .94.94 0 011-1 .94.94 0 011 1 .94.94 0 01-1 1z"/><path d="M15.6 12.6A18.39 18.39 0 0017 7a6.92 6.92 0 00-7-7 6.74 6.74 0 00-7 7.1 19.4 19.4 0 001.5 5.5C1.6 13.3 0 14.5 0 16c0 2.7 5.2 4 10 4s10-1.3 10-4c0-1.5-1.5-2.7-4.4-3.4zM2 16c0-.2.8-1 3.3-1.5a22 22 0 002.3 3.4C3.9 17.5 2 16.4 2 16zm3-9.1A4.81 4.81 0 0110 2a4.89 4.89 0 015 4.9c-.2 2.2-1.1 6.2-5 10.6A18.87 18.87 0 015 6.9zm7.4 11a20 20 0 002.3-3.4c2.5.5 3.3 1.3 3.3 1.5 0 .4-1.9 1.5-5.6 1.9z"/></symbol><symbol id="messenger-icon"><path d="M9 0C4 0 0 3.73 0 8.33a8.09 8.09 0 003.34 6.48V18l3.08-1.69a9.46 9.46 0 002.58.35c5 0 9-3.73 9-8.33S14 0 9 0zm1 11.17L7.62 8.78l-4.48 2.45 4.91-5.16 2.33 2.39L14.86 6z"/></symbol><symbol id="right-arrow-icon"><path d="M10.29.29a1 1 0 011.42 0l4 4a1 1 0 010 1.42l-4 4a1 1 0 01-1.42-1.42L12.59 6H1a1 1 0 010-2h11.59l-2.3-2.29a1 1 0 010-1.42z"/></symbol><symbol id="search-icon"><path d="M8.69 17.39a8.7 8.7 0 116.79-3.27L20 18.63 18.63 20l-4.52-4.51a8.69 8.69 0 01-5.42 1.9zm0-1.94a6.76 6.76 0 10-6.76-6.76 6.76 6.76 0 006.76 6.76z"/></symbol><symbol id="select-icon"><path d="M5 17l-5-4.76 1.5-1.42L5 14.14l3.5-3.32 1.5 1.42L5 17zM8.5 6.18L5 2.86 1.5 6.18 0 4.75 5 0l5 4.75-1.5 1.43z"/></symbol><symbol id="smile-icon"><path d="M10 0a10 10 0 1010 10A10 10 0 0010 0zm0 18a8 8 0 118-8 8 8 0 01-8 8z"/><path d="M12.83 12.83a4.38 4.38 0 01-1.27.86 4 4 0 01-4.88-1.45L5 13.35A6.59 6.59 0 006.64 15a6 6 0 004.57.9 5.75 5.75 0 003-1.64 6.36 6.36 0 00.74-.89l-1.66-1.11a5 5 0 01-.46.57zM6.5 10A1.5 1.5 0 105 8.5 1.5 1.5 0 006.5 10zM13.49 10A1.5 1.5 0 1012 8.49 1.5 1.5 0 0013.49 10z"/></symbol><symbol id="telegram-icon"><path d="M18.65.11L.93 6.62C-.28 7.09-.27 7.73.71 8l4.55 1.37L15.78 3c.5-.29 1-.14.58.18l-8.52 7.38L7.52 15a1.18 1.18 0 00.92-.44l2.21-2.05 4.6 3.24c.84.45 1.45.22 1.66-.75l3-13.56c.33-1.15-.45-1.68-1.26-1.33z"/></symbol><symbol id="text-icon"><path d="M9 7h5.5L9 1.5zM2 0h8l6 6v12a2 2 0 01-2 2H2a2 2 0 01-1.41-.59A2 2 0 010 18V2a2 2 0 012-2zm9 16v-2H2v2zm3-4v-2H2v2z"/></symbol><symbol id="upload-icon"><path d="M0 15.01a1 1 0 011-1h12a1 1 0 010 2H1a1 1 0 01-1-1zM3.29 4.72a1 1 0 010-1.41l3-3A1 1 0 017.7.29l3 3a1.004 1.004 0 01-1.41 1.43L8 3.42v7.59a1 1 0 01-2 0V3.42l-1.29 1.3a1 1 0 01-1.41 0z"/></symbol><symbol id="viber-icon"><path d="M16.02 1.75C15.51 1.34 13.61 0 9.37 0h-.82c-1.53 0-4.8.26-6.63 1.85C.56 3.13.09 5 .02 7.37s-.1 6.71 4.35 7.9v1.82s0 .72.47.87.85-.2 1.29-.67c.09-.09.18-.2.29-.3l1.1-1.19a18.43 18.43 0 005.64-.39l.23-.06a5.36 5.36 0 004.44-4.93c.59-4.53-.28-7.42-1.81-8.67zm-2.59 9.86a3.18 3.18 0 01-.73.86 1.5 1.5 0 01-.88.36h-.31a13 13 0 01-2.06-.9 12.83 12.83 0 01-2.51-1.75 11 11 0 01-1.92-2.57 9.45 9.45 0 01-1-1.95.9.9 0 010-.4 1.36 1.36 0 01.37-.71 3.67 3.67 0 01.9-.71.83.83 0 01.49-.09.68.68 0 01.4.23 9.55 9.55 0 011.19 1.6.73.73 0 01-.13.94l-.45.33a.58.58 0 00-.19.49 4.5 4.5 0 003.12 3 .65.65 0 00.51-.18l.36-.42a.8.8 0 011-.13 10.86 10.86 0 011.7 1.16.63.63 0 01.14.84zm-3.09-6.54a3.32 3.32 0 00-1-.21.22.22 0 01-.32-.21.23.23 0 01.17-.27h.1a3.52 3.52 0 012.41 1 3.07 3.07 0 01.84 2.25.2.2 0 01-.07.16.23.23 0 01-.16.06.22.22 0 01-.24-.2 2.61 2.61 0 00-.71-1.93 3.08 3.08 0 00-1.02-.65zm1 2.15a.11.11 0 010 .08.22.22 0 010 .08h-.17a.24.24 0 01-.16-.07.18.18 0 01-.07-.15 1.12 1.12 0 00-1.25-1.08.23.23 0 010-.46 1.59 1.59 0 011.66 1.5zm2.47 1.06a.28.28 0 01-.17.07.23.23 0 01-.23-.23 4.27 4.27 0 00-1.3-3.25A4.47 4.47 0 0010.6 4a4.59 4.59 0 00-1.72-.3.22.22 0 01-.23-.21v-.1a.13.13 0 01.06-.07l.08-.08a.14.14 0 01.09 0 5 5 0 013.53 1.31 5 5 0 011.1 1.65 4.55 4.55 0 01.33 1.93.21.21 0 01-.07.15z"/></symbol><symbol id="whatsapp-icon"><path d="M9.56 16.88a8.37 8.37 0 01-4.09-1.06L0 18l2.18-5.47a8.49 8.49 0 01-.39-7.37 8.7 8.7 0 011.8-2.69A8.47 8.47 0 016.28.67a8.36 8.36 0 016.56 0 8.32 8.32 0 014.49 4.49A8.16 8.16 0 0118 8.44a8.16 8.16 0 01-.67 3.28 8.47 8.47 0 01-1.8 2.69 8.7 8.7 0 01-2.69 1.8 8.33 8.33 0 01-3.28.67zm2.82-6.75h-1.13l-.63.56a5 5 0 01-1.95-1.36 5 5 0 01-1.36-1.95l.57-.63V5.63A1.06 1.06 0 007.66 5a1.24 1.24 0 00-.46-.4q-.25-.13-.36 0L6 5.4a2 2 0 00-.2 2.13 7.18 7.18 0 001.85 2.81 7.18 7.18 0 002.81 1.85A2 2 0 0012.6 12l.83-.83q.11-.11 0-.36a1.24 1.24 0 00-.43-.46 1 1 0 00-.62-.22z"/></symbol><symbol id="youtube-icon"><path d="M19.58 2.19a2.42 2.42 0 00-.64-1.12 2.47 2.47 0 00-1.13-.65C16.25 0 10 0 10 0S3.75 0 2.19.42A2.44 2.44 0 00.42 2.18 26 26 0 000 7a25.87 25.87 0 00.42 4.81 2.51 2.51 0 001.77 1.77C3.75 14 10 14 10 14s6.25 0 7.81-.42a2.49 2.49 0 001.77-1.77A25.87 25.87 0 0020 7a25.87 25.87 0 00-.42-4.81zM8 10V4l5.18 3z"/></symbol></svg>