<svg xmlns="http://www.w3.org/2000/svg" width="18" height="18" viewBox="0 0 18 18"><path d="M13.5,8.58a2,2,0,0,1,.35.77H11.63A.76.76,0,0,1,11.7,9a.93.93,0,0,1,.21-.35.76.76,0,0,1,.34-.27,1.32,1.32,0,0,1,.56-.14A1.16,1.16,0,0,1,13.5,8.58ZM7.13,8.1a1,1,0,0,0,.21-1c-.07-.07-.14-.21-.21-.21s-.21-.07-.35-.13H5V8.31H6.51A1.1,1.1,0,0,0,7.13,8.1ZM6.58,9.28H5v1.87h1.6A.85.85,0,0,0,7,11.08a.53.53,0,0,0,.35-.14c.07-.07.21-.14.28-.28a1,1,0,0,0,.06-.41.87.87,0,0,0-.27-.77A1.57,1.57,0,0,0,6.58,9.28ZM18,3.39V14.61A3.39,3.39,0,0,1,14.61,18H3.39A3.39,3.39,0,0,1,0,14.61V3.39A3.39,3.39,0,0,1,3.39,0H14.61A3.39,3.39,0,0,1,18,3.39ZM11.35,6.65h2.77V6H11.35ZM9.14,10.38a2,2,0,0,0-.28-1.1A1.75,1.75,0,0,0,8,8.65a1.69,1.69,0,0,0,.69-.55,1.46,1.46,0,0,0,.21-.83,2.94,2.94,0,0,0-.14-.83A1.51,1.51,0,0,0,8.31,6a2.37,2.37,0,0,0-.69-.27,2.36,2.36,0,0,0-1-.14H3.46v6.78H6.78a3.92,3.92,0,0,0,.9-.14,2.34,2.34,0,0,0,.77-.34A1.77,1.77,0,0,0,9,11.22,2.61,2.61,0,0,0,9.14,10.38Zm2.49-.2h3.53a5.56,5.56,0,0,0-.07-1.11,1.88,1.88,0,0,0-.41-.9,2.11,2.11,0,0,0-.76-.62,2.93,2.93,0,0,0-1.11-.28,2.76,2.76,0,0,0-1,.21,5.67,5.67,0,0,0-.83.55,1.69,1.69,0,0,0-.49.83,3,3,0,0,0-.2,1,2.68,2.68,0,0,0,.2,1,2.47,2.47,0,0,0,.49.83,3,3,0,0,0,.76.55,2.76,2.76,0,0,0,1,.21,2.59,2.59,0,0,0,1.45-.41,2.47,2.47,0,0,0,.9-1.25H13.92a.87.87,0,0,1-.35.41,1.17,1.17,0,0,1-.69.21,1.29,1.29,0,0,1-.9-.27A1.71,1.71,0,0,1,11.63,10.18Z"/></svg>