<svg xmlns="http://www.w3.org/2000/svg" width="18" height="18" viewBox="0 0 18 18"><path d="M14.61,0H3.39A3.39,3.39,0,0,0,0,3.39V14.61A3.39,3.39,0,0,0,3.39,18H14.61A3.39,3.39,0,0,0,18,14.61V3.39A3.39,3.39,0,0,0,14.61,0ZM9,15.48A6.48,6.48,0,1,1,15.48,9,6.49,6.49,0,0,1,9,15.48Z"/><path d="M9.39,9.06,9.61,9c-.14-.31-.29-.63-.45-.94a20.6,20.6,0,0,1-5.69.79V9a5.53,5.53,0,0,0,1.42,3.7A8.69,8.69,0,0,1,9.39,9.06Z"/><path d="M8.7,7.2a37.72,37.72,0,0,0-2-3.2A5.57,5.57,0,0,0,3.58,7.87,20.06,20.06,0,0,0,8.7,7.2Z"/><path d="M12.67,4.87a5.42,5.42,0,0,0-2.33-1.23,5.48,5.48,0,0,0-2.64,0A29.3,29.3,0,0,1,9.77,6.87,6.27,6.27,0,0,0,12.67,4.87Z"/><path d="M10.19,7.69c.13.26.26.53.37.8l.12.29A12.88,12.88,0,0,1,14.53,9a5.49,5.49,0,0,0-1.24-3.45A7.37,7.37,0,0,1,10.19,7.69Z"/><path d="M11,9.65a23.26,23.26,0,0,1,1.07,3.95,5.54,5.54,0,0,0,2.38-3.71A8.08,8.08,0,0,0,11,9.65Z"/><path d="M10,9.92A7.57,7.57,0,0,0,5.6,13.37,5.47,5.47,0,0,0,9,14.54a5.35,5.35,0,0,0,2.16-.44A22.67,22.67,0,0,0,10,9.9Z"/></svg>