<svg xmlns="http://www.w3.org/2000/svg" width="18" height="18" viewBox="0 0 18 18"><path d="M13,8.68c-.26.17-.35.39-.35.89a1,1,0,0,0,.25.82.5.5,0,0,0,.67.06,1.08,1.08,0,0,0,.27-.41,1.94,1.94,0,0,0-.12-1.17A.59.59,0,0,0,13,8.68Z"/><path d="M9,0A9,9,0,0,0,1.36,13.75a.53.53,0,0,1-.08.45l-.08.11a6.92,6.92,0,0,1-.6.61,4.14,4.14,0,0,0-.38.34A.71.71,0,0,0,0,16a1.21,1.21,0,0,0,.26.38l.12.09a2.5,2.5,0,0,0,.49.26,6.39,6.39,0,0,0,2.71-.05l.48-.11A9,9,0,1,0,9,0ZM4.85,11.08c0,.11-.13.13-.49.13-.18,0-.29,0-.36,0s-.14-.38-.14-1.32V9.57C3.86,8.2,3.87,8.1,4,8a1.12,1.12,0,0,1,.79,0,.22.22,0,0,1,.1.09S4.89,11,4.85,11.08ZM4.67,7.21a.66.66,0,0,1-.58,0,.57.57,0,0,1,0-.88.67.67,0,0,1,.63,0A.51.51,0,0,1,4.67,7.21Zm6,3.83c-.07.16-.12.17-.48.17s-.31,0-.37-.06l-.06-.06v-.87A5.26,5.26,0,0,0,9.71,9a.49.49,0,0,0-.12-.17l-.1-.1H9.13L9,8.85l0,0L8.91,9c-.08.13-.08.31-.08,1.08h0v0c0,.73,0,1-.13,1.08a.6.6,0,0,1-.34.05H8.3a.69.69,0,0,1-.32,0c-.11-.09-.11-.31-.12-.92v-.09C7.84,9,7.83,9,7.63,8.8a.43.43,0,0,0-.56,0c-.17.18-.17.23-.17,1.26v.18c0,.59,0,.8-.11.88s-.15,0-.29,0H6.43c-.31,0-.37,0-.46-.2A27,27,0,0,1,6,8c.19-.2.79-.1.8.12,0,.07,0,.18.07.18L7,8.22a1.13,1.13,0,0,1,1.13-.3.86.86,0,0,1,.49.38h0s0,.07.06.08.08,0,.18-.14h0A1.12,1.12,0,0,1,10.16,8a1.2,1.2,0,0,1,.51.69,2.09,2.09,0,0,0,.05.21c0,.07,0,.5,0,1.07v1Zm3.89-.39-.08.12a.32.32,0,0,1-.1.1L14.3,11a2.19,2.19,0,0,1-.46.23l-.18.05a3.83,3.83,0,0,1-.83,0,.19.19,0,0,0-.1,0A2.48,2.48,0,0,1,12.2,11a1.75,1.75,0,0,1-.57-1.65,1.42,1.42,0,0,1,.24-.7L12,8.49A1.58,1.58,0,0,1,12.68,8l.25-.06a3.43,3.43,0,0,1,.78,0,1.6,1.6,0,0,1,.57.25l.11.09a.52.52,0,0,1,.18.18.74.74,0,0,0,.09.12,1.42,1.42,0,0,1,.19.41,2.09,2.09,0,0,0,.05.21A2,2,0,0,1,14.59,10.65Z"/></svg>