<svg xmlns="http://www.w3.org/2000/svg" width="18" height="18" viewBox="0 0 18 18"><path d="M9,6a3,3,0,1,0,3,3A3,3,0,0,0,9,6Zm9,3c0-1.24,0-2.47-.06-3.72a5.37,5.37,0,0,0-1.45-3.77A5.38,5.38,0,0,0,12.71.06C11.47,0,10.24,0,9,0S6.53,0,5.28.06A5.37,5.37,0,0,0,1.51,1.51,5.37,5.37,0,0,0,.06,5.28C0,6.53,0,7.76,0,9s0,2.47.06,3.72a5.37,5.37,0,0,0,1.45,3.77,5.37,5.37,0,0,0,3.77,1.45C6.53,18,7.76,18,9,18s2.47,0,3.71-.06a5.38,5.38,0,0,0,3.78-1.45,5.37,5.37,0,0,0,1.45-3.77C18,11.47,18,10.24,18,9ZM9,13.62A4.62,4.62,0,1,1,13.62,9,4.61,4.61,0,0,1,9,13.62Zm4.8-8.35a1.08,1.08,0,1,1,1.08-1.08,1,1,0,0,1-.08.42,1,1,0,0,1-.58.58A1.16,1.16,0,0,1,13.8,5.27Z"/></svg>