<svg xmlns="http://www.w3.org/2000/svg" width="18" height="18" viewBox="0 0 18 18"><path d="M14.52,7.32a.58.58,0,0,1,.19,0,.42.42,0,0,1,.16.11.55.55,0,0,1,.14.35A.45.45,0,0,1,15,8a.44.44,0,0,1-.1.16.42.42,0,0,1-.16.11.58.58,0,0,1-.19,0H13.21V9.2h1.31a.31.31,0,0,1,.19,0,.54.54,0,0,1,.16.1A.62.62,0,0,1,15,9.5a.5.5,0,0,1,0,.39.46.46,0,0,1-.11.16.57.57,0,0,1-.16.11.58.58,0,0,1-.19,0H12.73A.44.44,0,0,1,12.4,10a.5.5,0,0,1-.14-.35V5.94a.49.49,0,0,1,.47-.5h1.8a.46.46,0,0,1,.31.15.47.47,0,0,1,.13.35.48.48,0,0,1-.13.34.44.44,0,0,1-.32.15H13.21v.89ZM11.63,9.69a.5.5,0,0,1-.14.35.44.44,0,0,1-.33.15.46.46,0,0,1-.38-.2L8.94,7.38V9.69a.54.54,0,0,1-.13.35.45.45,0,0,1-.34.15A.44.44,0,0,1,8.14,10,.5.5,0,0,1,8,9.69V5.94a.48.48,0,0,1,.32-.47l.15,0a.46.46,0,0,1,.37.2l1.85,2.62V5.94a.47.47,0,1,1,.94,0Zm-4.3,0a.5.5,0,0,1-.14.35.45.45,0,0,1-.34.15A.48.48,0,0,1,6.52,10a.5.5,0,0,1-.14-.35V5.94a.49.49,0,0,1,.48-.5.48.48,0,0,1,.47.5Zm-1.85.5H3.69A.45.45,0,0,1,3.35,10a.55.55,0,0,1-.14-.35V5.94a.49.49,0,0,1,.48-.5.48.48,0,0,1,.47.5V9.2H5.48a.47.47,0,0,1,.33.14A.52.52,0,0,1,6,9.69a.5.5,0,0,1-.14.35A.44.44,0,0,1,5.48,10.19ZM18,7.67C18,3.44,14,0,9,0S0,3.44,0,7.67c0,3.79,3.2,7,7.53,7.57.29.06.69.2.79.46a2.07,2.07,0,0,1,0,.86l-.12.8c0,.23-.19.93.78.51a29.33,29.33,0,0,0,7.08-5.5A7,7,0,0,0,18,7.67Z"/></svg>