<svg xmlns="http://www.w3.org/2000/svg" width="20" height="20" viewBox="0 0 20 20"><path d="M10,4A3,3,0,0,0,7,7a3,3,0,0,0,3,3,3,3,0,0,0,3-3A3,3,0,0,0,10,4Zm0,4A.94.94,0,0,1,9,7a.94.94,0,0,1,1-1,.94.94,0,0,1,1,1A.94.94,0,0,1,10,8Z"/><path d="M15.6,12.6A18.39,18.39,0,0,0,17,7a6.92,6.92,0,0,0-7-7A6.74,6.74,0,0,0,3,7.1a19.4,19.4,0,0,0,1.5,5.5C1.6,13.3,0,14.5,0,16c0,2.7,5.2,4,10,4s10-1.3,10-4C20,14.5,18.5,13.3,15.6,12.6ZM2,16c0-.2.8-1,3.3-1.5a22,22,0,0,0,2.3,3.4C3.9,17.5,2,16.4,2,16ZM5,6.9A4.81,4.81,0,0,1,10,2a4.89,4.89,0,0,1,5,4.9c-.2,2.2-1.1,6.2-5,10.6A18.87,18.87,0,0,1,5,6.9Zm7.4,11a20,20,0,0,0,2.3-3.4C17.2,15,18,15.8,18,16,18,16.4,16.1,17.5,12.4,17.9Z"/></svg>