<svg xmlns="http://www.w3.org/2000/svg" width="20" height="20" viewBox="0 0 20 20"><path d="M10,0A10,10,0,1,0,20,10,10,10,0,0,0,10,0Zm0,18a8,8,0,1,1,8-8A8,8,0,0,1,10,18Z"/><path d="M12.83,12.83a4.38,4.38,0,0,1-1.27.86,4,4,0,0,1-4.88-1.45L5,13.35A6.59,6.59,0,0,0,6.64,15a6,6,0,0,0,4.57.9,5.75,5.75,0,0,0,3-1.64,6.36,6.36,0,0,0,.74-.89l-1.66-1.11A5,5,0,0,1,12.83,12.83Z"/><path d="M6.5,10A1.5,1.5,0,1,0,5,8.5,1.5,1.5,0,0,0,6.5,10Z"/><path d="M13.49,10A1.5,1.5,0,1,0,12,8.49,1.5,1.5,0,0,0,13.49,10Z"/></svg>