<svg xmlns="http://www.w3.org/2000/svg" width="18.01" height="18" viewBox="0 0 18.01 18"><path d="M16,1.75C15.49,1.34,13.59,0,9.35,0H8.53C7,0,3.73.26,1.9,1.85.54,3.13.07,5,0,7.37s-.1,6.71,4.35,7.9v1.82s0,.72.47.87.85-.2,1.29-.67c.09-.09.18-.2.29-.3L7.5,15.8a18.43,18.43,0,0,0,5.64-.39l.23-.06a5.36,5.36,0,0,0,4.44-4.93C18.4,5.89,17.53,3,16,1.75Zm-2.59,9.86a3.18,3.18,0,0,1-.73.86,1.5,1.5,0,0,1-.88.36h-.31a13,13,0,0,1-2.06-.9,12.83,12.83,0,0,1-2.51-1.75A11,11,0,0,1,5,7.61,9.45,9.45,0,0,1,4,5.66a.9.9,0,0,1,0-.4,1.36,1.36,0,0,1,.37-.71,3.67,3.67,0,0,1,.9-.71h0a.83.83,0,0,1,.49-.09.68.68,0,0,1,.4.23A9.55,9.55,0,0,1,7.35,5.58a.73.73,0,0,1-.13.94l-.45.33a.58.58,0,0,0-.19.49,4.5,4.5,0,0,0,3.12,3,.65.65,0,0,0,.51-.18l.36-.42a.8.8,0,0,1,1-.13,10.86,10.86,0,0,1,1.7,1.16A.63.63,0,0,1,13.41,11.61ZM10.32,5.07a3.32,3.32,0,0,0-1-.21l0,0A.22.22,0,0,1,9,4.65a.23.23,0,0,1,.17-.27h.1a3.52,3.52,0,0,1,2.41,1,3.07,3.07,0,0,1,.84,2.25.2.2,0,0,1-.07.16.23.23,0,0,1-.16.06.22.22,0,0,1-.24-.2v0a2.61,2.61,0,0,0-.71-1.93A3.08,3.08,0,0,0,10.32,5.07Zm1,2.15a.11.11,0,0,1,0,.08.22.22,0,0,1,0,.08h-.17a.24.24,0,0,1-.16-.07.18.18,0,0,1-.07-.15A1.12,1.12,0,0,0,9.67,6.08h0l0,0a.23.23,0,0,1,0-.46,1.59,1.59,0,0,1,1.66,1.5Zm2.47,1.06a.28.28,0,0,1-.17.07.23.23,0,0,1-.23-.23,4.27,4.27,0,0,0-1.3-3.25A4.47,4.47,0,0,0,10.58,4a4.59,4.59,0,0,0-1.72-.3.22.22,0,0,1-.23-.21h0V3.39a.13.13,0,0,1,.06-.07l.08-.08a.14.14,0,0,1,.09,0,5,5,0,0,1,3.53,1.31,5,5,0,0,1,1.1,1.65,4.55,4.55,0,0,1,.33,1.93A.21.21,0,0,1,13.75,8.28Z" transform="translate(0.02)"/></svg>