<svg xmlns="http://www.w3.org/2000/svg" width="18" height="18" viewBox="0 0 18 18"><path d="M9.56,16.88a8.37,8.37,0,0,1-4.09-1.06L0,18l2.18-5.47a8.49,8.49,0,0,1-.39-7.37,8.7,8.7,0,0,1,1.8-2.69A8.47,8.47,0,0,1,6.28.67a8.36,8.36,0,0,1,6.56,0,8.32,8.32,0,0,1,4.49,4.49A8.16,8.16,0,0,1,18,8.44a8.16,8.16,0,0,1-.67,3.28,8.47,8.47,0,0,1-1.8,2.69,8.7,8.7,0,0,1-2.69,1.8A8.33,8.33,0,0,1,9.56,16.88Zm2.82-6.75H11.25l-.63.56A5,5,0,0,1,8.67,9.33,5,5,0,0,1,7.31,7.38l.57-.63V5.63A1.06,1.06,0,0,0,7.66,5,1.24,1.24,0,0,0,7.2,4.6q-.25-.13-.36,0L6,5.4a2,2,0,0,0-.2,2.13,7.18,7.18,0,0,0,1.85,2.81,7.18,7.18,0,0,0,2.81,1.85A2,2,0,0,0,12.6,12l.83-.83q.11-.11,0-.36a1.24,1.24,0,0,0-.43-.46A1,1,0,0,0,12.38,10.13Z"/></svg>